# xmcd
#
# Track frame offsets:
#	150
#	14742
#	30220
#	43647
#	57442
#	70337
#	84692
#	97455
#	111072
#	125315
#	139330
#	154462
#	166262
#	179640
# Disc length: 2580 seconds
# Revision: 1
# Processed by: cddbd v1.5.2PL0 Copyright (c) Steve Scherf et al.
#
# Submitted via: libkcddb 0.21
#
DISCID=cb0a120e
DTITLE=Inge Haderlein - Ein Lied für alle Fälle
DYEAR=1993
DGENRE=Musikantenstadl
TTITLE0=Ich bin so gerne Deine Frau
TTITLE1=Ein Lied für alle Fälle
TTITLE2=Macht die Gläser leer
TTITLE3=Ein fränkischer Abend
TTITLE4=Wenn's der Himmel so will
TTITLE5=Die kleine Bank am Waldesrand
TTITLE6=Abends, wenn die Sonne schlafen geht
TTITLE7=Ein glückliches Leben
TTITLE8=Ein Familienfest zuhaus (Inge und Conny Haderlein)
TTITLE9=Die kleinen Dinge des Lebens
TTITLE10=Einen Rucksack voller G'mütlichkeit
TTITLE11=Ich freu' mich auf heut' Abend
TTITLE12=Einfach das Leben genießen
TTITLE13=Unser Dörferl bei Nacht
EXTD=Die singende Wirtin (9 002723 231045)
EXTT0=
EXTT1=
EXTT2=
EXTT3=
EXTT4=
EXTT5=
EXTT6=
EXTT7=
EXTT8=
EXTT9=
EXTT10=
EXTT11=
EXTT12=
EXTT13=
PLAYORDER=
